<?xml version="1.0" encoding="UTF-8" standalone="no"?>
<svg
   xmlns:dc="http://purl.org/dc/elements/1.1/"
   xmlns:cc="http://creativecommons.org/ns#"
   xmlns:rdf="http://www.w3.org/1999/02/22-rdf-syntax-ns#"
   xmlns:svg="http://www.w3.org/2000/svg"
   xmlns="http://www.w3.org/2000/svg"
   xmlns:sodipodi="http://sodipodi.sourceforge.net/DTD/sodipodi-0.dtd"
   xmlns:inkscape="http://www.inkscape.org/namespaces/inkscape"
   inkscape:version="1.0 (4035a4fb49, 2020-05-01)"
   sodipodi:docname="attached-icon.svg"
   id="svg4"
   version="1.1"
   width="24"
   viewBox="0 0 48 48"
   height="24"
   fill="#8e8e8e"
   class="_8-yf5 "
   aria-label="Etiquetadas">
  <metadata
     id="metadata10">
    <rdf:RDF>
      <cc:Work
         rdf:about="">
        <dc:format>image/svg+xml</dc:format>
        <dc:type
           rdf:resource="http://purl.org/dc/dcmitype/StillImage" />
        <dc:title></dc:title>
      </cc:Work>
    </rdf:RDF>
  </metadata>
  <defs
     id="defs8" />
  <sodipodi:namedview
     inkscape:current-layer="svg4"
     inkscape:window-maximized="0"
     inkscape:window-y="0"
     inkscape:window-x="0"
     inkscape:cy="12"
     inkscape:cx="12"
     inkscape:zoom="35.416667"
     showgrid="false"
     id="namedview6"
     inkscape:window-height="480"
     inkscape:window-width="820"
     inkscape:pageshadow="2"
     inkscape:pageopacity="0"
     guidetolerance="10"
     gridtolerance="10"
     objecttolerance="10"
     borderopacity="1"
     bordercolor="#666666"
     pagecolor="#ffffff" />
  <path
     id="path2"
     d="M41.5 5.5H30.4c-.5 0-1-.2-1.4-.6l-4-4c-.6-.6-1.5-.6-2.1 0l-4 4c-.4.4-.9.6-1.4.6h-11c-3.3 0-6 2.7-6 6v30c0 3.3 2.7 6 6 6h35c3.3 0 6-2.7 6-6v-30c0-3.3-2.7-6-6-6zm-29.4 39c-.6 0-1.1-.6-1-1.2.7-3.2 3.5-5.6 6.8-5.6h12c3.4 0 6.2 2.4 6.8 5.6.1.6-.4 1.2-1 1.2H12.1zm32.4-3c0 1.7-1.3 3-3 3h-.6c-.5 0-.9-.4-1-.9-.6-5-4.8-8.9-9.9-8.9H18c-5.1 0-9.4 3.9-9.9 8.9-.1.5-.5.9-1 .9h-.6c-1.7 0-3-1.3-3-3v-30c0-1.7 1.3-3 3-3h11.1c1.3 0 2.6-.5 3.5-1.5L24 4.1 26.9 7c.9.9 2.2 1.5 3.5 1.5h11.1c1.7 0 3 1.3 3 3v30zM24 12.5c-5.3 0-9.6 4.3-9.6 9.6s4.3 9.6 9.6 9.6 9.6-4.3 9.6-9.6-4.3-9.6-9.6-9.6zm0 16.1c-3.6 0-6.6-2.9-6.6-6.6 0-3.6 2.9-6.6 6.6-6.6s6.6 2.9 6.6 6.6c0 3.6-3 6.6-6.6 6.6z" />
</svg>
