<?xml version="1.0" encoding="UTF-8" standalone="no"?>
<svg
   xmlns:dc="http://purl.org/dc/elements/1.1/"
   xmlns:cc="http://creativecommons.org/ns#"
   xmlns:rdf="http://www.w3.org/1999/02/22-rdf-syntax-ns#"
   xmlns:svg="http://www.w3.org/2000/svg"
   xmlns="http://www.w3.org/2000/svg"
   xmlns:sodipodi="http://sodipodi.sourceforge.net/DTD/sodipodi-0.dtd"
   xmlns:inkscape="http://www.inkscape.org/namespaces/inkscape"
   inkscape:version="1.0 (4035a4fb49, 2020-05-01)"
   sodipodi:docname="notification-icon.svg"
   xml:space="preserve"
   style="enable-background:new 0 0 655.715 655.715;"
   viewBox="0 0 655.715 655.715"
   height="655.715px"
   width="655.715px"
   y="0px"
   x="0px"
   id="Capa_1"
   version="1.1"><metadata
   id="metadata192"><rdf:RDF><cc:Work
       rdf:about=""><dc:format>image/svg+xml</dc:format><dc:type
         rdf:resource="http://purl.org/dc/dcmitype/StillImage" /></cc:Work></rdf:RDF></metadata><defs
   id="defs190" /><sodipodi:namedview
   inkscape:current-layer="g155"
   inkscape:window-maximized="1"
   inkscape:window-y="-8"
   inkscape:window-x="-8"
   inkscape:cy="-54.412223"
   inkscape:cx="621.71445"
   inkscape:zoom="0.1767767"
   showgrid="false"
   id="namedview188"
   inkscape:window-height="1017"
   inkscape:window-width="1920"
   inkscape:pageshadow="2"
   inkscape:pageopacity="0"
   guidetolerance="10"
   gridtolerance="10"
   objecttolerance="10"
   borderopacity="1"
   bordercolor="#666666"
   pagecolor="#ffffff" />
<g
   id="g155">
	<g
   id="_x36__27_">
		<g
   id="g152">
			<path
   id="path150"
   d="M546.429,393.429V218.572C546.429,97.854,448.574,0,327.857,0S109.286,97.854,109.286,218.572v174.857L21.857,568.286     h198.922c10.12,49.878,54.206,87.429,107.078,87.429c52.872,0,96.958-37.551,107.078-87.429h198.922L546.429,393.429z      M327.857,612c-28.502,0-52.522-18.294-61.55-43.714h123.121C380.38,593.706,356.359,612,327.857,612z M87.429,524.571     L153,393.429V218.572c0-96.565,78.292-174.857,174.857-174.857c96.564,0,174.857,78.292,174.857,174.857v174.857l65.571,131.143     H87.429z" />
		</g>
	</g>
</g>
<g
   id="g157">
</g>
<g
   id="g159">
</g>
<g
   id="g161">
</g>
<g
   id="g163">
</g>
<g
   id="g165">
</g>
<g
   id="g167">
</g>
<g
   id="g169">
</g>
<g
   id="g171">
</g>
<g
   id="g173">
</g>
<g
   id="g175">
</g>
<g
   id="g177">
</g>
<g
   id="g179">
</g>
<g
   id="g181">
</g>
<g
   id="g183">
</g>
<g
   id="g185">
</g>
</svg>
