<?xml version="1.0" encoding="UTF-8" standalone="no"?>
<svg
   xmlns:dc="http://purl.org/dc/elements/1.1/"
   xmlns:cc="http://creativecommons.org/ns#"
   xmlns:rdf="http://www.w3.org/1999/02/22-rdf-syntax-ns#"
   xmlns:svg="http://www.w3.org/2000/svg"
   xmlns="http://www.w3.org/2000/svg"
   xmlns:sodipodi="http://sodipodi.sourceforge.net/DTD/sodipodi-0.dtd"
   xmlns:inkscape="http://www.inkscape.org/namespaces/inkscape"
   sodipodi:docname="dibujo.svg"
   inkscape:version="1.0 (4035a4fb49, 2020-05-01)"
   id="svg8"
   version="1.1"
   viewBox="0 0 3.7451181 4.239213"
   height="4.239213mm"
   width="3.7451181mm">
  <defs
     id="defs2" />
  <sodipodi:namedview
     inkscape:window-maximized="0"
     inkscape:window-y="0"
     inkscape:window-x="182"
     inkscape:window-height="1040"
     inkscape:window-width="1300"
     fit-margin-bottom="0"
     fit-margin-right="0"
     fit-margin-left="0"
     fit-margin-top="0"
     showgrid="false"
     inkscape:document-rotation="0"
     inkscape:current-layer="layer1"
     inkscape:document-units="mm"
     inkscape:cy="-122.33253"
     inkscape:cx="-238.59005"
     inkscape:zoom="0.98994949"
     inkscape:pageshadow="2"
     inkscape:pageopacity="0.0"
     borderopacity="1.0"
     bordercolor="#666666"
     pagecolor="#ffffff"
     id="base" />
  <metadata
     id="metadata5">
    <rdf:RDF>
      <cc:Work
         rdf:about="">
        <dc:format>image/svg+xml</dc:format>
        <dc:type
           rdf:resource="http://purl.org/dc/dcmitype/StillImage" />
        <dc:title></dc:title>
      </cc:Work>
    </rdf:RDF>
  </metadata>
  <g
     transform="translate(-13.340982,-10.731584)"
     id="layer1"
     inkscape:groupmode="layer"
     inkscape:label="Capa 1">
    <g
       transform="matrix(0.13229167,0,0,0.13229167,13.090892,10.731584)"
       id="g844"
       style="fill:#262626">
      <path
         d="m 28.7,32 c -0.4,0 -0.8,-0.2 -1.1,-0.4 L 16,19.9 4.4,31.6 C 4,32 3.3,32.2 2.8,31.9 2.2,31.7 1.9,31.1 1.9,30.5 V 1.5 C 1.8,0.7 2.5,0 3.3,0 h 25.4 c 0.8,0 1.5,0.7 1.5,1.5 v 29 c 0,0.6 -0.4,1.2 -0.9,1.4 C 29.1,32 28.9,32 28.7,32 Z M 4.8,3 v 23.9 l 9.4,-9.4 c 0.9,-0.9 2.6,-0.9 3.5,0 l 9.4,9.4 V 3 Z"
         id="path833" />
    </g>
  </g>
</svg>
