<?xml version="1.0" encoding="utf-8"?>
<!-- Svg Vector Icons : http://www.onlinewebfonts.com/icon -->
<!DOCTYPE svg PUBLIC "-//W3C//DTD SVG 1.1//EN" "http://www.w3.org/Graphics/SVG/1.1/DTD/svg11.dtd">
<svg version="1.1" xmlns="http://www.w3.org/2000/svg" xmlns:xlink="http://www.w3.org/1999/xlink" x="0px" y="0px" viewBox="0 0 1000 1000" enable-background="new 0 0 1000 1000" xml:space="preserve">
<metadata> Svg Vector Icons : http://www.onlinewebfonts.com/icon </metadata>
<g><g transform="translate(0.000000,512.000000) scale(0.100000,-0.100000)"><path d="M4360,5006.1c-873.6-97.7-1226.1-436.8-1408.1-1352.6l-42.2-214.6l-195.4-11.5c-902.4-61.3-1551.8-224.2-1829.6-463.6c-90-76.6-174.3-231.8-174.3-319.9c0-76.6,59.4-182,157.1-275.9c162.8-159,362.1-208.8,768.2-191.6c327.6,13.4,570.9,53.6,1335.3,216.5c1908.2,410,2130.4,410,3965.8,21.1c1049.9-224.2,1109.3-233.7,1523.1-233.7c316.1,0,354.4,3.8,456,44.1c153.3,63.2,262.5,151.4,323.8,262.5c65.1,120.7,67.1,185.8,3.8,312.3c-162.8,325.7-795.1,536.4-1856.4,618.8c-157.1,11.5-289.3,23-291.2,24.9c-1.9,1.9-24.9,111.1-51.7,245.2c-92,448.3-212.6,716.5-423.4,925.3c-199.3,199.2-408.1,296.9-785.5,365.9C5634,5015.7,4614.8,5034.8,4360,5006.1z"/><path d="M2559.1,1860.3c63.2-475.1,392.7-902.3,823.8-1070.9c97.7-38.3,147.5-44.1,335.3-44.1c365.9,1.9,661,109.2,841,306.5c166.7,182,231.8,381.3,231.8,701.2v206.9H3668.4H2545.7L2559.1,1860.3z"/><path d="M5212.5,1753c0-323.8,63.2-517.3,231.8-701.2c180.1-197.3,473.2-304.6,841.1-306.5c260.5-1.9,373.6,32.6,580.5,172.4c308.5,210.7,528.8,569,578.6,942.6l13.4,99.6H6335.2H5212.5V1753z"/><path d="M2541.9,136c7.7-13.4,47.9-72.8,88.1-132.2c151.3-222.2,262.5-528.8,264.4-720.3c0-53.6-13.4-70.9-118.8-141.8c-463.6-312.3-856.4-695.4-1092-1063.3c-88.1-136-187.7-348.7-245.2-521.1c-97.7-291.2-114.9-465.5-114.9-1130.3v-599.7l92-38.3c1111.2-482.8,3078.7-684,4946.7-503.9c825.7,78.6,1594,245.2,2126.6,461.7l182,74.7l5.7,563.3c5.7,618.8-9.6,831.5-86.2,1092C8417.7-1925.4,7944.5-1341,7251-873.6c-126.5,86.2-141.8,101.5-141.8,157.1c1.9,189.7,130.3,538.3,275.9,741.4c107.3,149.4,109.2,141.8-28.7,126.4c-275.9-26.8-576.7-143.7-795.1-306.5c-90.1-67.1-120.7-103.4-130.3-151.3c-23-116.9-183.9-415.7-325.7-601.6c-164.8-218.4-555.6-605.4-879.4-875.5l-226.1-185.8l-224.2,185.8c-122.6,103.5-339.1,300.8-479,438.7c-379.3,369.7-597.7,674.4-703.1,982.8c-44.1,124.5-49.8,132.2-205,237.6C3210.5,0,3013.2,84.3,2794.7,128.4C2612.7,166.7,2522.7,168.6,2541.9,136z"/></g></g>
</svg>