<?xml version="1.0" encoding="UTF-8" standalone="no"?>
<svg
   xmlns:dc="http://purl.org/dc/elements/1.1/"
   xmlns:cc="http://creativecommons.org/ns#"
   xmlns:rdf="http://www.w3.org/1999/02/22-rdf-syntax-ns#"
   xmlns:svg="http://www.w3.org/2000/svg"
   xmlns="http://www.w3.org/2000/svg"
   xmlns:sodipodi="http://sodipodi.sourceforge.net/DTD/sodipodi-0.dtd"
   xmlns:inkscape="http://www.inkscape.org/namespaces/inkscape"
   inkscape:version="1.0 (4035a4fb49, 2020-05-01)"
   sodipodi:docname="uploaded-icon.svg"
   id="svg868"
   version="1.1"
   width="24"
   viewBox="0 0 48 48"
   height="24"
   fill="#8e8e8e"
   class="_8-yf5 "
   aria-label="Publicaciones">
  <metadata
     id="metadata874">
    <rdf:RDF>
      <cc:Work
         rdf:about="">
        <dc:format>image/svg+xml</dc:format>
        <dc:type
           rdf:resource="http://purl.org/dc/dcmitype/StillImage" />
        <dc:title></dc:title>
      </cc:Work>
    </rdf:RDF>
  </metadata>
  <defs
     id="defs872" />
  <sodipodi:namedview
     inkscape:current-layer="svg868"
     inkscape:window-maximized="1"
     inkscape:window-y="-8"
     inkscape:window-x="-8"
     inkscape:cy="12"
     inkscape:cx="12"
     inkscape:zoom="29.833333"
     showgrid="false"
     id="namedview870"
     inkscape:window-height="1017"
     inkscape:window-width="1920"
     inkscape:pageshadow="2"
     inkscape:pageopacity="0"
     guidetolerance="10"
     gridtolerance="10"
     objecttolerance="10"
     borderopacity="1"
     bordercolor="#666666"
     pagecolor="#ffffff" />
  <path
     id="path866"
     fill-rule="evenodd"
     d="M45 1.5H3c-.8 0-1.5.7-1.5 1.5v42c0 .8.7 1.5 1.5 1.5h42c.8 0 1.5-.7 1.5-1.5V3c0-.8-.7-1.5-1.5-1.5zm-40.5 3h11v11h-11v-11zm0 14h11v11h-11v-11zm11 25h-11v-11h11v11zm14 0h-11v-11h11v11zm0-14h-11v-11h11v11zm0-14h-11v-11h11v11zm14 28h-11v-11h11v11zm0-14h-11v-11h11v11zm0-14h-11v-11h11v11z"
     clip-rule="evenodd" />
</svg>
